<?xml version="1.0" encoding="utf-8"?>
<!-- Generator: Adobe Illustrator 16.0.0, SVG Export Plug-In . SVG Version: 6.00 Build 0)  -->
<!DOCTYPE svg PUBLIC "-//W3C//DTD SVG 1.1//EN" "http://www.w3.org/Graphics/SVG/1.1/DTD/svg11.dtd">
<svg version="1.1" id="Layer_1" xmlns="http://www.w3.org/2000/svg" xmlns:xlink="http://www.w3.org/1999/xlink" x="0px" y="0px"
	 width="93px" height="333px" viewBox="0 0 93 333" enable-background="new 0 0 93 333" xml:space="preserve">
<path fill="#C7C8CA" d="M87.957,196.221c-0.43-0.203-0.867-0.369-1.258-0.436c2.304-23.111,0.816-44.394-3.366-63.709
	c0,0-0.071-0.357-0.199-1.001c0.45-0.234,0.89-0.345,1.292-0.38c0.039,0.179,0.078,0.359,0.117,0.541
	C88.799,150.903,90.443,172.62,87.957,196.221z M50.307,55.607c0.398-0.229,0.729-0.547,0.984-0.861
	c11.84,17.493,23.23,39.239,30.363,64.826c-0.362,0.041-0.764,0.12-1.159,0.266C73.354,94.51,62.052,72.966,50.307,55.607z
	 M43.177,45.954c-0.041-0.053-0.063-0.081-0.063-0.081C27.886,25.322,13.034,11.936,6.643,6.59C6.091,6.947,5.435,7.154,4.73,7.154
	c-1.962,0-3.552-1.602-3.552-3.577C1.178,1.602,2.768,0,4.73,0c1.961,0,3.552,1.602,3.552,3.577c0,0.857-0.3,1.645-0.799,2.261
	c5.784,4.759,21.074,18.206,36.855,39.365C43.925,45.383,43.492,45.629,43.177,45.954z M32.749,325.195
	c0.738,0,1.428,0.207,2.016,0.568c10.84-16.271,25.355-42.875,25.355-42.875l1.366,0.368c0,0-14.833,27.19-25.708,43.406
	c0.53,0.667,0.847,1.515,0.847,2.435c0,2.155-1.735,3.902-3.875,3.902s-3.875-1.747-3.875-3.902
	C28.875,326.943,30.608,325.195,32.749,325.195z M85.052,208.053c0.371,0.154,0.8,0.281,1.275,0.34
	c-3.267,20.127-9.558,41.534-19.748,64.129c-0.362-0.25-0.804-0.373-1.263-0.418C75.493,249.538,81.783,228.157,85.052,208.053z"/>
<path fill="#72D46F" d="M46.177,57.885c-4.102,0-7.427-3.349-7.427-7.479c0-4.13,3.325-7.479,7.427-7.479
	c4.103,0,7.427,3.349,7.427,7.479C53.604,54.536,50.279,57.885,46.177,57.885z M46.177,46.828c-1.962,0-3.552,1.602-3.552,3.577
	c0,1.975,1.59,3.577,3.552,3.577s3.552-1.602,3.552-3.577C49.729,48.43,48.139,46.828,46.177,46.828z"/>
<path fill="#72D46F" d="M81.698,133.33c-4.103,0-7.427-3.349-7.427-7.479s3.324-7.479,7.427-7.479c4.102,0,7.427,3.349,7.427,7.479
	S85.8,133.33,81.698,133.33z M81.698,122.273c-1.962,0-3.552,1.602-3.552,3.577s1.59,3.577,3.552,3.577s3.552-1.602,3.552-3.577
	S83.66,122.273,81.698,122.273z"/>
<path fill="#72D46F" d="M85.573,209.426c-4.103,0-7.427-3.349-7.427-7.479c0-4.131,3.324-7.479,7.427-7.479
	c4.102,0,7.427,3.349,7.427,7.479C93,206.077,89.675,209.426,85.573,209.426z M85.573,198.369c-1.962,0-3.552,1.602-3.552,3.576
	c0,1.976,1.59,3.578,3.552,3.578s3.552-1.603,3.552-3.578C89.125,199.971,87.535,198.369,85.573,198.369z"/>
<path fill="#72D46F" d="M62.323,285.521c-4.103,0-7.427-3.35-7.427-7.479s3.324-7.479,7.427-7.479c4.102,0,7.427,3.35,7.427,7.479
	S66.425,285.521,62.323,285.521z M62.323,274.465c-1.962,0-3.552,1.602-3.552,3.577s1.59,3.577,3.552,3.577s3.552-1.602,3.552-3.577
	S64.285,274.465,62.323,274.465z"/>
</svg>
