<svg xmlns="http://www.w3.org/2000/svg" width="93" height="333" viewBox="0 0 93 333"><path fill-rule="evenodd" clip-rule="evenodd" fill="#C7C8CA" d="M87.957 196.221c-.429-.204-.867-.37-1.258-.436 2.304-23.111.816-44.394-3.366-63.709l-.199-1.001c.45-.234.889-.345 1.292-.38l.117.541c4.256 19.667 5.901 41.384 3.414 64.985zM50.306 55.607c.399-.229.729-.547.985-.861 11.84 17.493 23.23 39.239 30.364 64.826-.363.041-.765.12-1.16.266-7.141-25.328-18.443-46.872-30.189-64.231zm-7.129-9.653l-.063-.081C27.886 25.322 13.034 11.936 6.643 6.59a3.509 3.509 0 0 1-1.913.564c-1.962 0-3.552-1.602-3.552-3.577S2.768 0 4.73 0c1.961 0 3.552 1.602 3.552 3.577 0 .857-.3 1.645-.799 2.261 5.784 4.759 21.074 18.206 36.855 39.365-.413.18-.846.426-1.161.751zM32.749 325.195a3.84 3.84 0 0 1 2.016.569c10.84-16.271 25.355-42.875 25.355-42.875l1.367.368s-14.834 27.19-25.709 43.406c.53.667.847 1.514.847 2.435 0 2.155-1.735 3.902-3.875 3.902s-3.875-1.747-3.875-3.902 1.733-3.903 3.874-3.903zm52.303-117.142c.371.154.799.281 1.275.34-3.266 20.127-9.558 41.534-19.748 64.128-.362-.249-.804-.373-1.263-.418 10.177-22.565 16.467-43.946 19.736-64.05z"/><path fill-rule="evenodd" clip-rule="evenodd" fill="#EE2424" d="M46.177 57.885c-4.102 0-7.427-3.349-7.427-7.479s3.325-7.479 7.427-7.479c4.102 0 7.427 3.349 7.427 7.479s-3.325 7.479-7.427 7.479zm0-11.057c-1.962 0-3.552 1.602-3.552 3.577s1.59 3.577 3.552 3.577c1.961 0 3.552-1.602 3.552-3.577s-1.59-3.577-3.552-3.577zm35.521 86.502c-4.102 0-7.427-3.349-7.427-7.479s3.325-7.479 7.427-7.479c4.102 0 7.427 3.349 7.427 7.479s-3.325 7.479-7.427 7.479zm0-11.057c-1.961 0-3.552 1.602-3.552 3.577s1.59 3.577 3.552 3.577 3.552-1.602 3.552-3.577-1.59-3.577-3.552-3.577zm3.875 87.153c-4.102 0-7.427-3.349-7.427-7.479s3.325-7.479 7.427-7.479c4.102 0 7.427 3.349 7.427 7.479s-3.325 7.479-7.427 7.479zm0-11.057c-1.961 0-3.552 1.602-3.552 3.577s1.59 3.577 3.552 3.577 3.552-1.602 3.552-3.577-1.59-3.577-3.552-3.577zm-23.25 87.152c-4.102 0-7.427-3.349-7.427-7.479s3.325-7.479 7.427-7.479c4.102 0 7.427 3.349 7.427 7.479s-3.325 7.479-7.427 7.479zm0-11.056c-1.961 0-3.552 1.602-3.552 3.577s1.59 3.577 3.552 3.577 3.552-1.602 3.552-3.577-1.59-3.577-3.552-3.577z"/></svg>